<?xml version="1.0" encoding="UTF-8"?>
<!-- Generator: Adobe Illustrator 16.0.0, SVG Export Plug-In . SVG Version: 6.00 Build 0)  -->
<!DOCTYPE svg PUBLIC "-//W3C//DTD SVG 1.1//EN" "http://www.w3.org/Graphics/SVG/1.1/DTD/svg11.dtd">
<svg version="1.1" id="Layer_1" xmlns="http://www.w3.org/2000/svg" xmlns:xlink="http://www.w3.org/1999/xlink" x="0px" y="0px" width="360.833px" height="74px" viewBox="0 0 360.833 74" enable-background="new 0 0 360.833 74" xml:space="preserve">
<g display="none">
	<path display="inline" fill-rule="evenodd" clip-rule="evenodd" fill="#223468" d="M175.488,24.893   c0,6.671,0.121,13.345-0.04,20.013c-0.119,4.902,2.252,6.758,6.116,7.516c3.549,0.697,7.137,0.741,10.649-0.263   c3.602-1.029,5.044-3.03,5.044-6.753c0.001-14.059,0.01-28.119-0.021-42.178c-0.002-0.895,0.209-1.117,1.107-1.109   c5.666,0.045,11.333,0.041,17,0.002c0.825-0.006,1.004,0.231,1.002,1.023c-0.025,12.983,0.021,25.967-0.028,38.95   c-0.051,13.211-10.06,25.439-23.076,28.315c-16.631,3.674-32.406-6.334-36.138-22.938c-0.52-2.316-0.696-4.681-0.701-7.044   c-0.025-12.374-0.001-24.748-0.033-37.121c-0.002-0.921,0.178-1.201,1.158-1.191c5.594,0.054,11.19,0.057,16.785-0.002   c1.039-0.011,1.202,0.331,1.197,1.259C175.472,10.547,175.488,17.72,175.488,24.893z"/>
	<path display="inline" fill-rule="evenodd" clip-rule="evenodd" fill="#FCB717" d="M50.372,2.155   c9.961-0.001,19.923,0.011,29.885-0.026c0.937-0.003,1.19,0.215,1.188,1.175c-0.026,11.144-0.004,22.288,0.011,33.432   c0.006,3.977,0.031,7.954,0.047,11.931c-0.512,0.478-1.151,0.301-1.744,0.323c-1.239,0.045-1.343,0.151-1.435,1.338   c-0.413,5.352-3.061,9.313-7.821,11.652c-4.897,2.407-9.79,2.037-14.246-1.176c-3.861-2.784-5.953-6.614-5.903-11.479   c0.009-0.788,0.011-1.577,0-2.367c-0.19-14.336-0.26-28.675-0.21-43.013C50.148,3.342,50.049,2.72,50.372,2.155z"/>
	<path display="inline" fill-rule="evenodd" clip-rule="evenodd" fill="#223468" d="M50.372,2.155   c0.037,4.657,0.085,9.313,0.108,13.97c0.029,5.661,0.026,11.322,0.058,16.983c0.031,5.551,0.104,11.102,0.132,16.654   c0.031,6.242,4.911,12.04,11.073,13.116c8.557,1.495,16.004-4.526,16.3-13.208c0.025-0.749,0.246-1.003,0.994-0.958   c0.818,0.048,1.643-0.025,2.466-0.045c0.498,0.049,0.378,0.432,0.378,0.729c0.004,7.126-0.007,14.253,0.019,21.378   c0.002,0.667-0.257,0.739-0.812,0.731c-1.754-0.027-3.51-0.004-5.264-0.001c-7.984,0.016-15.97,0.033-23.955,0.046   c-0.393,0-0.785-0.026-1.178-0.042c-0.517-0.683-0.326-1.519-0.45-2.277c-1.035-6.313-4.48-10.789-10.322-13.292   c-10.195-4.368-21.812,2.425-23.218,13.463c-0.096,0.751,0.032,1.586-0.531,2.239c-1.182,0.001-2.363,0.002-3.545,0.003   c-0.331-0.268-0.261-0.647-0.261-0.997c-0.005-7.496-0.006-14.992,0-22.487c0.001-1.106,0.162-1.275,1.345-1.285   c3.299-0.027,6.6,0.024,9.899-0.018c4.698-0.061,9.004-1.407,12.7-4.334c5.44-4.311,8.279-10.018,7.983-16.95   C43.848,15.211,36.226,7.247,26.053,5.974c-0.071-0.009-0.144-0.008-0.214-0.021c-0.743-0.139-1.805,0.341-2.159-0.513   c-0.412-0.999-0.449-2.161,0.088-3.219c5.256-0.026,10.512-0.061,15.768-0.076C43.148,2.134,46.76,2.151,50.372,2.155z"/>
	<path display="inline" fill-rule="evenodd" clip-rule="evenodd" fill="#FCB717" d="M23.768,2.221   c0.009,1.039-0.336,2.29,0.123,3.06c0.508,0.85,1.898,0.34,2.893,0.496C37.338,7.434,44.827,16.29,44.623,26.958   c-0.194,10.219-8.449,19.09-18.636,20.014c-4.116,0.373-8.242,0.117-12.363,0.153c-0.844,0.008-1.155,0.138-1.149,1.086   c0.044,7.459,0.024,14.919,0.027,22.379c0,0.355-0.06,0.72,0.124,1.055c-0.782-0.062-0.502-0.671-0.503-1.067   c-0.018-4.915-0.007-9.828-0.012-14.742c-0.017-17.108-0.041-34.217-0.042-51.325c0-0.739-0.473-1.689,0.054-2.163   c0.537-0.483,1.508-0.153,2.288-0.155C17.529,2.185,20.648,2.209,23.768,2.221z"/>
	<path display="inline" fill-rule="evenodd" clip-rule="evenodd" fill="#FCB717" d="M16.171,71.642   c0.247-2.906,0.763-5.734,2.209-8.329c3.594-6.447,10.904-10.03,17.918-8.755c7.536,1.371,13.092,7.079,14.189,14.599   c0.113,0.777,0.138,1.568,0.204,2.352c-10.97,0.025-21.94,0.049-32.91,0.078C17.245,71.588,16.708,71.623,16.171,71.642z"/>
	<path display="inline" fill-rule="evenodd" clip-rule="evenodd" fill="#223468" d="M99.018,88.626c0,3.008-0.027,6.017,0.018,9.024   c0.012,0.784-0.165,1.041-0.998,1.029c-2.634-0.036-2.635,0.002-2.635-2.576c0-4.266,0.028-8.531-0.023-12.795   c-0.01-0.882,0.306-0.942,1.078-1.064c2.195-0.348,3.5,0.49,4.418,2.475c0.696,1.505,1.736,2.852,2.709,4.405   c1.229-1.979,2.437-3.828,3.538-5.739c0.488-0.847,1.052-1.153,2.032-1.125c2.619,0.074,2.621,0.024,2.621,2.612   c0,4.265-0.023,8.531,0.02,12.795c0.008,0.807-0.194,1.099-1.008,1c-0.843-0.102-1.954,0.351-2.478-0.172   c-0.526-0.525-0.149-1.632-0.157-2.483c-0.021-2.507-0.007-5.016-0.007-7.846c-1.611,2.427-3.068,4.623-4.587,6.912   c-1.491-2.25-2.903-4.383-4.316-6.516C99.167,88.585,99.092,88.605,99.018,88.626z"/>
	<path display="inline" fill-rule="evenodd" clip-rule="evenodd" fill="#223468" d="M139.406,89.126   c1.329-2.137,2.595-4.125,3.804-6.148c0.321-0.538,0.676-0.744,1.288-0.704c0.786,0.05,1.58,0.045,2.367,0.001   c0.58-0.034,0.724,0.191,0.722,0.739c-0.017,4.985-0.015,9.972-0.002,14.958c0.001,0.48-0.097,0.671-0.64,0.701   c-2.983,0.165-2.982,0.183-2.982-2.79c0-2.436,0-4.871,0-7.653c-0.504,0.725-0.841,1.189-1.158,1.667   c-0.989,1.492-2.001,2.971-2.941,4.493c-0.419,0.678-0.605,0.559-0.98-0.026c-1.266-1.978-2.58-3.925-4.048-6.146   c0,3.192,0,6.077,0,8.963c0,1.475,0,1.475-1.449,1.475c-2.181,0-2.181,0-2.181-2.164c0-4.376,0.017-8.753-0.016-13.129   c-0.006-0.788,0.151-1.011,1.022-1.127c2.217-0.295,3.584,0.479,4.517,2.52C137.418,86.264,138.46,87.61,139.406,89.126z"/>
	<path display="inline" fill-rule="evenodd" clip-rule="evenodd" fill="#223468" d="M251.888,91.981c0-2.94,0.022-5.807-0.016-8.672   c-0.01-0.745,0.097-1.063,0.969-1.048c2.66,0.044,2.661,0,2.661,2.688c0,4.228-0.017,8.456,0.016,12.684   c0.006,0.75-0.13,0.998-0.973,1.066c-1.585,0.128-2.61-0.368-3.535-1.716c-1.759-2.566-3.737-4.982-5.625-7.459   c-0.208-0.273-0.432-0.534-0.692-0.855c-0.252,0.36-0.163,0.685-0.164,0.982c-0.008,2.723-0.024,5.447,0.01,8.17   c0.008,0.654-0.172,0.846-0.84,0.854c-2.79,0.036-2.789,0.061-2.789-2.739c0-4.192,0.017-8.384-0.015-12.577   c-0.006-0.782,0.138-1.038,1.021-1.119c1.715-0.158,2.811,0.42,3.791,1.852c1.717,2.507,3.648,4.869,5.497,7.286   C251.367,91.591,251.448,91.9,251.888,91.981z"/>
	<path display="inline" fill-rule="evenodd" clip-rule="evenodd" fill="#223468" d="M190.385,88.77   c-0.206,0.402-0.095,0.832-0.097,1.241c-0.012,2.616-0.02,5.232,0.004,7.847c0.005,0.581-0.129,0.8-0.768,0.816   c-2.858,0.076-2.857,0.099-2.857-2.778c0-4.229,0.02-8.458-0.018-12.687c-0.007-0.766,0.249-0.865,0.958-0.96   c1.772-0.237,2.871,0.428,3.876,1.895c1.832,2.671,3.89,5.187,6.076,7.717c0-1.085,0-2.171,0-3.257   c0-1.827,0.024-3.656-0.013-5.483c-0.014-0.651,0.181-0.845,0.846-0.853c2.781-0.033,2.781-0.057,2.781,2.761   c0,4.229-0.018,8.458,0.017,12.687c0.006,0.733-0.175,0.9-0.927,0.979c-1.598,0.168-2.599-0.396-3.52-1.725   c-1.834-2.646-3.871-5.151-5.829-7.711C190.776,89.075,190.695,88.816,190.385,88.77z"/>
	<path display="inline" fill-rule="evenodd" clip-rule="evenodd" fill="#223468" d="M277.202,91.803   c0-2.795,0.033-5.592-0.019-8.386c-0.016-0.858,0.165-1.176,1.098-1.154c2.535,0.058,2.535,0.013,2.535,2.585   c0,4.305-0.012,8.608,0.014,12.913c0.003,0.665-0.139,0.868-0.864,0.93c-1.561,0.134-2.615-0.306-3.551-1.682   c-1.769-2.604-3.784-5.043-5.698-7.55c-0.187-0.247-0.387-0.485-0.615-0.772c-0.275,0.335-0.171,0.665-0.173,0.96   c-0.009,2.726-0.024,5.452,0.01,8.178c0.007,0.663-0.186,0.842-0.848,0.85c-2.782,0.033-2.782,0.057-2.782-2.751   c0-4.232,0.018-8.465-0.018-12.697c-0.005-0.743,0.214-0.875,0.941-0.98c1.834-0.261,2.925,0.492,3.943,1.968   c1.82,2.639,3.857,5.127,5.803,7.679C277.053,91.863,277.128,91.833,277.202,91.803z"/>
	<path display="inline" fill-rule="evenodd" clip-rule="evenodd" fill="#223468" d="M315.183,92.798   c0,0.753-0.096,1.522,0.023,2.255c0.186,1.128-0.393,1.697-1.248,2.214c-3.077,1.864-6.302,2.293-9.645,0.88   c-3.566-1.51-5.423-5.521-4.554-9.582c0.775-3.627,4.174-6.433,7.824-6.534c2.356-0.065,4.557,0.32,6.481,1.791   c0.413,0.315,0.599,0.575,0.124,0.976c-0.135,0.114-0.224,0.279-0.338,0.416c-0.461,0.549-0.823,1.311-1.412,1.588   c-0.674,0.319-1.15-0.583-1.768-0.863c-2.312-1.051-4.78-0.565-6.206,1.299c-1.506,1.968-1.433,4.945,0.167,6.764   c1.527,1.737,4.273,2.153,6.405,1.023c1.083-0.573,0.556-1.529,0.554-2.292c-0.002-0.71-0.739-0.214-1.119-0.359   c-0.03-0.011-0.07-0.001-0.106-0.001c-2.553-0.001-2.615-0.087-2.311-2.668c0.051-0.422,0.201-0.539,0.596-0.536   c1.972,0.012,3.944,0.016,5.915-0.002c0.464-0.004,0.636,0.152,0.624,0.62C315.166,90.791,315.183,91.794,315.183,92.798z"/>
	<path display="inline" fill-rule="evenodd" clip-rule="evenodd" fill="#223468" d="M51.075,92.828c0,0.682-0.092,1.378,0.02,2.04   c0.218,1.287-0.44,1.931-1.451,2.528c-4.057,2.396-8.984,2.016-11.906-0.977c-2.225-2.281-2.97-6.197-1.632-9.206   c1.455-3.272,4.007-5.028,7.622-5.172c2.208-0.088,4.263,0.345,6.09,1.67c0.518,0.376,0.773,0.639,0.199,1.204   c-0.584,0.575-0.955,1.462-1.627,1.831c-0.797,0.435-1.328-0.62-2.043-0.904c-2.35-0.934-4.794-0.353-6.13,1.589   c-1.412,2.052-1.205,4.989,0.476,6.752c1.516,1.591,4.473,1.955,6.356,0.773c0.926-0.582,0.443-1.504,0.438-2.252   c-0.004-0.654-0.693-0.183-1.043-0.329c-0.031-0.013-0.071-0.002-0.107-0.002c-2.602-0.001-2.588-0.001-2.388-2.59   c0.035-0.454,0.157-0.623,0.625-0.617c1.971,0.019,3.943,0.02,5.915,0c0.496-0.005,0.601,0.217,0.593,0.65   C51.062,90.82,51.075,91.824,51.075,92.828z"/>
	<path display="inline" fill-rule="evenodd" clip-rule="evenodd" fill="#223468" d="M219.901,92.863c0,0.646-0.095,1.309,0.02,1.934   c0.252,1.384-0.479,2.064-1.563,2.685c-4.128,2.362-9.197,1.9-11.946-1.27c-2.391-2.757-2.755-5.971-1.324-9.239   c1.402-3.2,4.036-4.811,7.557-4.935c2.256-0.081,4.325,0.416,6.166,1.779c0.449,0.332,0.532,0.57,0.131,1.003   c-0.583,0.631-0.99,1.522-1.689,1.922c-0.79,0.45-1.331-0.618-2.052-0.896c-2.406-0.93-4.797-0.365-6.133,1.587   c-1.367,1.995-1.187,4.96,0.404,6.685c1.53,1.656,4.422,2.033,6.443,0.836c0.955-0.565,0.445-1.485,0.462-2.229   c0.017-0.697-0.678-0.196-1.019-0.349c-0.06-0.026-0.142-0.003-0.214-0.003c-2.506-0.001-2.492,0-2.371-2.512   c0.024-0.488,0.126-0.704,0.662-0.697c1.937,0.025,3.874,0.026,5.81-0.001c0.534-0.008,0.679,0.187,0.665,0.688   C219.88,90.854,219.901,91.859,219.901,92.863z"/>
	<path display="inline" fill-rule="evenodd" clip-rule="evenodd" fill="#223468" d="M318.529,90.501c0-2.438,0.02-4.876-0.012-7.313   c-0.009-0.673,0.144-0.93,0.888-0.921c3.549,0.042,7.098,0.033,10.646,0.005c0.642-0.005,0.858,0.144,0.864,0.829   c0.019,2.427,0.049,2.427-2.365,2.427c-1.828,0-3.657,0.024-5.484-0.013c-0.658-0.013-0.942,0.107-0.942,0.865   c-0.004,2.421-0.038,2.421,2.39,2.421c1.541,0,3.083,0.023,4.624-0.012c0.569-0.012,0.711,0.178,0.728,0.733   c0.076,2.548,0.096,2.548-2.449,2.548c-1.47,0-2.941,0.025-4.411-0.012c-0.623-0.016-0.872,0.122-0.881,0.822   c-0.029,2.536-0.06,2.536,2.474,2.536c1.9,0,3.801,0.016,5.701-0.01c0.534-0.008,0.741,0.126,0.771,0.708   c0.129,2.545,0.15,2.543-2.363,2.543c-3.083,0-6.166-0.025-9.249,0.019c-0.769,0.01-0.958-0.232-0.944-0.969   C318.555,95.306,318.529,92.903,318.529,90.501z"/>
	<path display="inline" fill-rule="evenodd" clip-rule="evenodd" fill="#223468" d="M284.678,90.462   c0-2.401,0.023-4.803-0.016-7.205c-0.011-0.704,0.114-1.002,0.918-0.991c3.514,0.045,7.026,0.043,10.54,0.001   c0.781-0.009,0.946,0.251,0.942,0.978c-0.014,2.283,0.016,2.283-2.302,2.283c-1.863,0-3.729,0.036-5.591-0.018   c-0.732-0.021-0.881,0.225-0.879,0.909c0.01,2.381-0.018,2.382,2.391,2.382c1.541,0,3.083,0.019,4.622-0.009   c0.561-0.011,0.719,0.182,0.737,0.741c0.09,2.538,0.109,2.538-2.373,2.538c-1.54,0-3.083,0.014-4.623-0.008   c-0.513-0.007-0.738,0.081-0.757,0.692c-0.086,2.662-0.112,2.662,2.537,2.662c1.863,0,3.729,0.021,5.591-0.012   c0.568-0.011,0.715,0.162,0.73,0.722c0.077,2.532,0.097,2.531-2.448,2.531c-3.048,0-6.094-0.022-9.141,0.017   c-0.713,0.01-0.907-0.194-0.897-0.899C284.703,95.338,284.678,92.899,284.678,90.462z"/>
	<path display="inline" fill-rule="evenodd" clip-rule="evenodd" fill="#223468" d="M115.637,90.436   c0-2.439,0.021-4.878-0.014-7.316c-0.01-0.649,0.159-0.857,0.835-0.851c3.586,0.034,7.172,0.026,10.758,0.005   c0.542-0.003,0.73,0.121,0.748,0.706c0.081,2.548,0.103,2.547-2.438,2.547c-1.829,0-3.658,0.022-5.486-0.013   c-0.61-0.012-0.789,0.175-0.805,0.788c-0.068,2.499-0.09,2.499,2.407,2.499c1.506,0,3.013,0.017,4.518-0.008   c0.527-0.01,0.744,0.11,0.77,0.703c0.112,2.576,0.135,2.575-2.442,2.575c-1.506,0-3.013,0.022-4.518-0.011   c-0.57-0.012-0.714,0.184-0.733,0.738c-0.093,2.619-0.111,2.618,2.484,2.618c1.829,0,3.658,0.023,5.486-0.013   c0.625-0.012,0.875,0.118,0.887,0.815c0.043,2.44,0.073,2.439-2.364,2.439c-3.012,0-6.025-0.026-9.036,0.019   c-0.802,0.011-1.108-0.144-1.082-1.033C115.682,95.243,115.637,92.838,115.637,90.436z"/>
	<path display="inline" fill-rule="evenodd" clip-rule="evenodd" fill="#223468" d="M223.045,87.861   c0-1.577,0.026-3.153-0.013-4.729c-0.015-0.631,0.128-0.858,0.82-0.866c2.865-0.031,2.864-0.058,2.865,2.791   c0.001,2.329-0.046,4.659,0.02,6.985c0.075,2.606,2.059,4.031,4.557,3.358c1.459-0.393,2.309-1.516,2.34-3.325   c0.052-2.937,0.058-5.875,0.009-8.812c-0.014-0.831,0.24-1.007,1.026-0.998c2.625,0.032,2.625,0,2.625,2.582   c0,2.365,0.007,4.729-0.001,7.093c-0.017,4.474-2.915,7.196-7.396,6.959c-4.488-0.236-6.633-2.369-6.825-6.849   c-0.06-1.395-0.009-2.794-0.009-4.191C223.056,87.861,223.051,87.861,223.045,87.861z"/>
	<path display="inline" fill-rule="evenodd" clip-rule="evenodd" fill="#223468" d="M19.278,98.886   c-2.433-0.035-4.567-0.72-6.44-2.201c-0.395-0.312-0.49-0.511-0.108-0.912c0.567-0.595,0.956-1.499,1.633-1.815   c0.757-0.354,1.334,0.648,2.036,0.975c1.173,0.546,2.368,0.821,3.645,0.67c0.78-0.093,1.484-0.364,1.626-1.283   c0.138-0.893-0.425-1.33-1.149-1.57c-1.219-0.407-2.464-0.735-3.686-1.133c-2.99-0.973-4.1-2.516-3.809-5.249   c0.244-2.297,2.112-4.003,4.811-4.271c2.241-0.223,4.337,0.279,6.248,1.506c0.52,0.333,0.816,0.631,0.295,1.24   c-0.509,0.595-0.797,1.537-1.418,1.835c-0.612,0.293-1.261-0.587-1.954-0.841c-1.089-0.4-2.159-0.776-3.333-0.387   c-0.59,0.195-0.989,0.535-1.042,1.206c-0.054,0.679,0.3,1.123,0.86,1.347c0.76,0.303,1.563,0.5,2.346,0.744   c0.683,0.213,1.378,0.393,2.046,0.646c2.711,1.024,3.689,2.556,3.378,5.238c-0.255,2.207-2.131,3.9-4.655,4.183   C20.147,98.867,19.679,98.866,19.278,98.886z"/>
	<path display="inline" fill-rule="evenodd" clip-rule="evenodd" fill="#223568" d="M28.533,90.437c0-2.436,0.021-4.871-0.014-7.307   c-0.008-0.64,0.145-0.854,0.828-0.862c2.816-0.034,2.815-0.059,2.815,2.712c0,4.263-0.013,8.526,0.014,12.788   c0.004,0.665-0.123,0.913-0.862,0.911c-2.782-0.004-2.782,0.026-2.782-2.761C28.533,94.091,28.533,92.264,28.533,90.437z"/>
	<path display="inline" fill-rule="evenodd" clip-rule="evenodd" fill="#223468" d="M351.16,90.44c0-2.4,0.026-4.8-0.016-7.198   c-0.013-0.71,0.115-1.064,0.916-0.967c0.879,0.105,2.03-0.369,2.584,0.177c0.557,0.548,0.161,1.698,0.166,2.582   c0.02,4.225-0.009,8.451,0.024,12.677c0.005,0.718-0.119,1.053-0.916,0.958c-0.88-0.104-2.035,0.361-2.586-0.17   c-0.557-0.538-0.15-1.695-0.164-2.58C351.14,94.093,351.16,92.266,351.16,90.44z"/>
	<g display="inline">
		<path fill="#FCB717" d="M353.365,70.155c-4.726-7.014-9.448-14.03-14.19-21.034c-0.41-0.604-0.543-0.926,0.174-1.512    c8.327-6.805,11.524-15.557,9.173-26.034c-2.492-11.115-12.284-19.14-23.77-19.375c-11.08-0.227-22.166-0.04-33.251-0.068    c-0.848-0.003-1.062,0.22-1.06,1.063c0.024,22.276,0.026,44.552-0.007,66.828c-0.002,0.999,0.312,1.157,1.207,1.151    c5.56-0.039,11.119-0.043,16.679,0.003c0.95,0.008,1.204-0.239,1.195-1.192c-0.049-5.344-0.007-10.689-0.042-16.034    c-0.006-0.803,0.205-1.039,1.02-1.021c2.473,0.054,4.95,0.061,7.424-0.002c0.893-0.023,1.396,0.233,1.867,1.024    c3.242,5.45,6.56,10.855,9.813,16.299c0.401,0.67,0.825,0.925,1.608,0.921c6.744-0.032,13.487-0.019,20.231-0.019    c0.785,0,1.569,0,2.57,0C353.707,70.685,353.542,70.416,353.365,70.155z M325.219,34.504c-2.365,0.006-4.729,0-7.095,0    c-2.578,0-5.159-0.027-7.739,0.018c-0.764,0.013-1.051-0.135-1.038-0.984c0.051-3.582,0.049-7.165,0.001-10.748    c-0.012-0.828,0.246-1.007,1.03-1.002c4.945,0.035,9.891,0.006,14.833,0.022c3.604,0.012,6.411,2.848,6.394,6.418    C331.588,31.764,328.815,34.494,325.219,34.504z"/>
	</g>
	<g display="inline">
		<path fill="#223468" d="M149.469,21.828c-2.5-11.314-12.933-19.686-24.534-19.686c-10.831,0-21.662,0.015-32.492-0.026    c-0.978-0.004-1.153,0.27-1.151,1.184c0.033,11.117,0.021,22.235,0.021,33.352c0,11.154,0.007,22.307-0.015,33.459    c-0.002,0.788,0.124,1.111,1.03,1.103c5.666-0.047,11.333-0.047,16.999,0c0.913,0.008,1.032-0.323,1.028-1.105    c-0.029-5.308,0.021-10.616-0.045-15.923c-0.013-1.086,0.318-1.281,1.314-1.257c2.867,0.068,5.738,0.039,8.607,0.019    c2.612-0.017,5.229,0.138,7.832-0.229C143.008,50.609,152.729,36.585,149.469,21.828z M126.106,34.5c-2.437,0.006-4.873,0-7.309,0    c-2.544,0-5.088-0.025-7.631,0.017c-0.716,0.011-0.985-0.125-0.976-0.92c0.045-3.617,0.042-7.236,0.002-10.854    c-0.008-0.772,0.245-0.948,0.976-0.943c4.979,0.029,9.959-0.003,14.939,0.021c3.525,0.018,6.362,2.88,6.36,6.353    C132.466,31.67,129.635,34.49,126.106,34.5z"/>
	</g>
	<g display="inline">
		<path fill="#FCB717" d="M283.609,22.24c-2.375-11.562-12.842-20.089-24.654-20.089c-10.794,0-21.588,0.014-32.383-0.024    c-1.003-0.003-1.232,0.28-1.229,1.247c0.033,11.045,0.021,22.091,0.021,33.136c0,11.153,0.011,22.306-0.021,33.459    c-0.002,0.922,0.199,1.218,1.176,1.209c5.593-0.05,11.188-0.054,16.782,0.003c1.019,0.012,1.153-0.337,1.147-1.223    c-0.038-5.307,0.005-10.615-0.041-15.922c-0.008-0.922,0.279-1.116,1.146-1.107c4.339,0.043,8.678,0.011,13.018,0.023    c2.088,0.006,4.143-0.261,6.165-0.752C278.174,48.932,286.407,35.852,283.609,22.24z M260.264,34.502    c-2.472,0.015-4.944,0.002-7.417,0.002c-2.58,0-5.16-0.024-7.739,0.017c-0.709,0.01-0.914-0.197-0.908-0.904    c0.032-3.654,0.029-7.309,0.002-10.963c-0.005-0.646,0.164-0.866,0.841-0.862c5.088,0.026,10.176-0.019,15.264,0.026    c3.501,0.03,6.267,2.965,6.227,6.487C266.494,31.704,263.693,34.481,260.264,34.502z"/>
	</g>
	<g display="inline">
		<path fill="#223468" d="M162.453,90.097c1.75-1.188,2.336-2.798,1.813-4.72c-0.531-1.947-2.079-2.79-3.938-2.979    c-2.785-0.282-5.589-0.056-8.384-0.115c-0.471-0.011-0.511,0.261-0.507,0.621c0.01,0.753,0.002,1.507,0.002,2.26    c0,4.196-0.004,8.393,0.007,12.588c0.001,0.377-0.216,0.917,0.528,0.908c2.94-0.035,5.889,0.071,8.817-0.126    c1.998-0.134,3.801-0.951,4.39-3.171C165.809,92.999,164.994,91.44,162.453,90.097z M157.339,85.485    c0.698,0.029,1.483-0.064,2.256,0.17c0.785,0.239,1.224,0.747,1.227,1.549c0.002,0.768-0.447,1.281-1.171,1.48    c-1.401,0.385-2.84,0.148-4.262,0.194c-0.26,0.009-0.387-0.146-0.398-0.393c-0.011-0.25-0.009-0.5-0.01-0.75    C154.975,85.485,154.975,85.485,157.339,85.485z M159.616,95.411c-0.645,0.021-1.29,0.003-1.935,0.004    c-0.036,0.001-0.072,0.001-0.107,0.001c-2.874,0-2.864,0-2.603-2.925c0.036-0.408,0.138-0.562,0.56-0.555    c1.397,0.022,2.797-0.034,4.192,0.029c1.261,0.057,2.045,0.812,2.018,1.791C161.712,94.749,160.929,95.37,159.616,95.411z"/>
	</g>
	<g display="inline">
		<path fill="#223468" d="M344.878,93.59c-0.416-0.576-0.405-0.777,0.255-1.139c2.246-1.228,3.096-3.361,2.566-6.152    c-0.382-2.008-2.04-3.528-4.37-3.85c-2.743-0.379-5.511-0.056-8.265-0.18c-0.786-0.036-0.932,0.241-0.927,0.964    c0.033,4.192,0.007,8.387,0.024,12.581c0.006,0.92-0.409,2.175,0.177,2.669c0.553,0.466,1.771,0.102,2.689,0.188    c0.725,0.068,0.818-0.252,0.797-0.862c-0.04-1.218-0.018-2.438-0.007-3.656c0.002-0.234-0.11-0.517,0.163-0.686    c0.581-0.359,2.687,0.134,3.079,0.717c0.856,1.279,1.71,2.56,2.569,3.835c0.216,0.32,0.381,0.661,0.889,0.647    c1.208-0.035,2.421-0.012,3.827-0.012C347.103,96.828,346.027,95.181,344.878,93.59z M342.196,90.138    c-0.698,0.121-1.424,0.08-2.137,0.111c-2.246-0.029-2.246-0.029-2.246-2.301c0-2.335,0-2.339,2.301-2.332    c0.643,0.001,1.289-0.008,1.925,0.064c1.313,0.147,2.002,0.858,2.046,2.037C344.135,89.068,343.52,89.91,342.196,90.138z"/>
	</g>
	<g display="inline">
		<path fill="#223468" d="M183.85,97.763c-1.889-4.433-3.779-8.865-5.676-13.294c-0.981-2.29-0.987-2.265-3.505-2.27    c-0.627-0.001-0.938,0.183-1.183,0.778c-1.154,2.806-2.367,5.589-3.555,8.382c-1.017,2.39-2.029,4.782-3.096,7.298    c1.166,0,2.196-0.018,3.226,0.009c0.451,0.012,0.599-0.225,0.758-0.589c0.442-1.009,0.52-2.465,1.382-2.924    c0.897-0.479,2.231-0.137,3.375-0.153c0.072-0.002,0.143-0.002,0.215,0c1.001,0.016,2.19-0.297,2.953,0.137    c0.816,0.465,0.875,1.792,1.306,2.726c0.045,0.097,0.101,0.192,0.128,0.294c0.095,0.363,0.308,0.515,0.695,0.508    c1.065-0.02,2.131-0.007,3.287-0.007C184.032,98.288,183.958,98.018,183.85,97.763z M176.956,91.756    c-1.139,0.001-2.277,0.001-3.563,0.001c0.69-1.702,1.338-3.299,2.073-5.111c0.695,1.674,1.32,3.169,1.935,4.667    C177.592,91.78,177.246,91.755,176.956,91.756z"/>
	</g>
	<g display="inline">
		<path fill="#223468" d="M70.04,97.693c-1.893-4.361-3.744-8.74-5.595-13.118c-1.009-2.387-0.998-2.372-3.565-2.375    c-0.617,0-0.935,0.161-1.184,0.767c-1.335,3.239-2.727,6.453-4.099,9.676c-0.836,1.966-1.672,3.934-2.519,5.926    c3.543,0.405,3.543,0.405,4.839-2.686c0.014-0.033,0.03-0.066,0.039-0.1c0.146-0.607,0.494-0.823,1.147-0.801    c1.612,0.054,3.23,0.077,4.841-0.005c0.908-0.046,1.302,0.273,1.616,1.108c0.982,2.61,1.021,2.563,3.805,2.595    C70.245,98.687,70.401,98.527,70.04,97.693z M59.607,91.724c0.686-1.675,1.339-3.271,2.08-5.081    c0.739,1.805,1.382,3.374,2.082,5.081C62.328,91.724,61.044,91.724,59.607,91.724z"/>
	</g>
	<g display="inline">
		<path fill="#223468" d="M80.936,82.43c-2.379-0.368-4.794-0.04-7.188-0.16c-0.796-0.041-0.931,0.256-0.918,0.97    c0.042,2.4,0.016,4.802,0.016,7.202c0,1.792,0,3.584,0,5.375c0,2.979,0,2.957,2.984,2.859c0.61-0.02,0.698-0.247,0.683-0.758    c-0.028-1.003,0.048-2.011-0.025-3.009c-0.063-0.852,0.126-1.208,1.077-1.142c1.028,0.072,2.079,0.005,3.106-0.116    c3.065-0.359,5.06-2.472,5.132-5.36C85.883,85.013,84.214,82.936,80.936,82.43z M79.989,90.432c-0.958,0.1-1.93,0.047-2.894,0.097    c-0.481,0.025-0.619-0.169-0.599-0.622c0.029-0.643,0.007-1.289,0.007-2.066c0.097-0.639-0.338-1.91,0.171-2.091    c1.063-0.379,2.331-0.234,3.5-0.042c1.279,0.209,1.979,1.131,1.938,2.426C82.074,89.348,81.246,90.301,79.989,90.432z"/>
	</g>
</g>
<g>
	<g>
		<path fill-rule="evenodd" clip-rule="evenodd" fill="#FCB717" d="M33.759,13.868c5.459-0.001,10.918,0,16.377-0.003    c1.557-0.001,3.114,0.003,4.669-0.042c0.532-0.016,0.649,0.147,0.648,0.661c-0.011,7.784,0,15.568,0.007,23.353    c0.002,2.739,0.012,5.478,0.018,8.217c-0.482,0.345-1.031,0.164-1.549,0.183c-0.879,0.032-0.831,0.015-0.906,0.892    c-0.326,3.811-2.253,6.577-5.709,8.136c-5.88,2.653-12.659-1.185-13.466-7.608c-0.062-0.491-0.098-0.979-0.098-1.472    c0.001-5.263,0.104-10.527-0.028-15.786c-0.13-5.203-0.022-10.403-0.087-15.604C33.631,14.48,33.589,14.158,33.759,13.868z"/>
		<path fill-rule="evenodd" clip-rule="evenodd" fill="#223468" d="M33.759,13.868c0.021,1.97,0.049,3.94,0.06,5.911    c0.017,2.976-0.005,5.953,0.036,8.929c0.083,5.972,0.063,11.943,0.09,17.915c0.021,4.705,3.882,8.866,8.45,9.27    c5.619,0.497,9.704-3.531,10.365-7.882c0.081-0.529,0.124-1.057,0.12-1.587c-0.002-0.31,0.108-0.413,0.414-0.402    c0.729,0.024,1.458,0.022,2.186,0.031c0.004,5.082,0.003,10.163,0.024,15.245c0.002,0.456-0.249,0.389-0.519,0.39    c-5.633,0.01-11.265,0.019-16.897,0.034c-1.338,0.003-2.676,0.032-4.015,0.049c-0.236-0.191-0.282-0.458-0.298-0.74    c-0.203-3.634-1.815-6.535-4.703-8.688c-4.328-3.228-10.036-3.097-14.208,0.227c-2.759,2.198-4.238,5.125-4.449,8.667    c-0.012,0.194,0.009,0.4-0.17,0.542c-0.709,0.004-1.418-0.009-2.125,0.021c-0.377,0.017-0.512-0.083-0.502-0.485    c0.026-1.2,0.009-2.402,0.009-3.603c0-4.056,0-8.113,0.001-12.169c0-0.216,0.015-0.432,0.022-0.648    c0.246-0.233,0.556-0.168,0.845-0.169c2.346-0.005,4.693,0.019,7.04-0.007c3.55-0.04,6.664-1.223,9.333-3.59    c2.808-2.49,4.389-5.624,4.711-9.319c0.341-3.92-0.781-7.441-3.377-10.458c-2.195-2.551-4.957-4.099-8.247-4.726    c-0.638-0.122-1.285-0.196-1.937-0.219c-0.58-0.021-0.713-0.133-0.7-0.707c0.014-0.6-0.156-1.22,0.139-1.799    C21.558,13.889,27.659,13.878,33.759,13.868z"/>
		<path fill-rule="evenodd" clip-rule="evenodd" fill="#FBB717" d="M15.457,13.899c-0.001,0.63,0.017,1.261-0.01,1.891    c-0.015,0.347,0.066,0.458,0.446,0.471c6.27,0.203,11.583,4.327,13.336,10.33c2.426,8.309-3.189,17.011-11.717,18.161    c-1.628,0.219-3.265,0.114-4.898,0.129c-1.655,0.017-3.31,0.01-4.964,0.013c-0.014-1.083-0.039-2.167-0.039-3.251    C7.607,36.378,7.648,31.114,7.596,25.85c-0.038-3.765-0.003-7.53-0.048-11.295c-0.006-0.497,0.086-0.674,0.635-0.667    C10.607,13.921,13.032,13.9,15.457,13.899z"/>
		<path fill-rule="evenodd" clip-rule="evenodd" fill="#FCB717" d="M10.245,61.777c0.143-4.65,2.202-8.187,6.252-10.475    c6.978-3.943,16.124,0.563,17.328,8.483c0.101,0.661,0.028,1.34,0.247,1.984c-0.275-0.011-0.55-0.032-0.825-0.033    c-5.618-0.001-11.237-0.025-16.854,0.011C14.343,61.761,12.294,61.778,10.245,61.777z"/>
	</g>
</g>
<g>
	<path fill="#223468" d="M79.79,33.489h-4.029l-2.074-4.534l-1.244,1.765v2.769h-3.472V21.492h3.472v4.96l3.309-4.96h3.31   l-3.03,4.391L79.79,33.489z"/>
	<path fill="#223468" d="M89.801,30.624v2.865h-9.026V21.492h9.026v2.769h-5.414V26h4.377v2.663h-4.377v1.96H89.801z"/>
	<path fill="#223468" d="M104.303,21.492v11.997h-3.419v-8.578l-2.219,8.578h-2.338l-2.307-8.578v8.578h-2.76V21.492h4.812   l1.74,6.372l1.661-6.372H104.303z"/>
	<path fill="#223468" d="M115.421,30.624v2.865h-9.026V21.492h9.026v2.769h-5.414V26h4.377v2.663h-4.377v1.96H115.421z"/>
	<path fill="#223468" d="M127.137,33.489h-2.997l-3.286-5.301c-0.422-0.68-0.847-1.505-1.276-2.478   c0.193,0.773,0.29,1.43,0.29,1.969v5.81h-2.988V21.492h3.48l2.795,4.394c0.557,0.874,0.978,1.641,1.265,2.303   c-0.188-1.025-0.281-2.074-0.281-3.146v-3.551h2.997V33.489z"/>
	<path fill="#223468" d="M134.159,24.366v9.123h-3.489v-9.123h-2.487v-2.874h8.464v2.874H134.159z"/>
	<path fill="#223468" d="M146.719,30.624v2.865h-9.026V21.492h9.026v2.769h-5.414V26h4.377v2.663h-4.377v1.96H146.719z"/>
	<path fill="#223468" d="M158.856,33.489h-4.083l-1.752-4.588h-1.161v4.588h-3.683V21.492h6.267c1.383,0,2.457,0.324,3.221,0.971   s1.147,1.501,1.147,2.562c0,0.691-0.141,1.302-0.422,1.833s-0.85,0.998-1.705,1.402L158.856,33.489z M151.86,26.334h1.573   c0.463,0,0.835-0.097,1.116-0.29s0.422-0.478,0.422-0.853c0-0.768-0.472-1.151-1.415-1.151h-1.696V26.334z"/>
	<path fill="#223468" d="M164.279,21.492v11.997h-3.683V21.492H164.279z"/>
	<path fill="#223468" d="M172.986,33.489l-0.678-2.364h-3.214l-0.72,2.364h-2.989l3.704-11.997h3.894l3.762,11.997H172.986z    M169.721,28.505h1.941l-0.971-3.48L169.721,28.505z"/>
	<path fill="#223468" d="M188.106,33.489h-2.997l-3.286-5.301c-0.422-0.68-0.847-1.505-1.276-2.478   c0.193,0.773,0.29,1.43,0.29,1.969v5.81h-2.988V21.492h3.48l2.795,4.394c0.557,0.874,0.978,1.641,1.265,2.303   c-0.188-1.025-0.281-2.074-0.281-3.146v-3.551h2.997V33.489z"/>
	<path fill="#223468" d="M198.434,29.129v4.359h-3.735V21.492h5.124c1.277,0,2.249,0.146,2.914,0.439s1.192,0.741,1.582,1.345   s0.584,1.28,0.584,2.03c0,1.143-0.398,2.065-1.195,2.769s-1.86,1.055-3.19,1.055H198.434z M198.381,26.554h1.23   c1.084,0,1.626-0.398,1.626-1.195c0-0.75-0.501-1.125-1.503-1.125h-1.354V26.554z"/>
	<path fill="#223468" d="M215.3,30.624v2.865h-9.026V21.492h9.026v2.769h-5.414V26h4.377v2.663h-4.377v1.96H215.3z"/>
	<path fill="#223468" d="M227.578,33.489h-4.029l-2.074-4.534l-1.244,1.765v2.769h-3.472V21.492h3.472v4.96l3.309-4.96h3.31   l-3.03,4.391L227.578,33.489z"/>
	<path fill="#223468" d="M237.589,30.624v2.865h-9.026V21.492h9.026v2.769h-5.414V26h4.377v2.663h-4.377v1.96H237.589z"/>
	<path fill="#223468" d="M249.727,33.489h-4.083l-1.752-4.588h-1.161v4.588h-3.683V21.492h6.267c1.383,0,2.457,0.324,3.221,0.971   s1.147,1.501,1.147,2.562c0,0.691-0.141,1.302-0.422,1.833s-0.85,0.998-1.705,1.402L249.727,33.489z M242.73,26.334h1.573   c0.463,0,0.835-0.097,1.116-0.29s0.422-0.478,0.422-0.853c0-0.768-0.472-1.151-1.415-1.151h-1.696V26.334z"/>
	<path fill="#223468" d="M256.986,21.492v7.559c0,1.16-0.104,2.043-0.312,2.65s-0.614,1.087-1.217,1.441s-1.421,0.532-2.452,0.532   c-0.908,0-1.729-0.097-2.461-0.29v-2.865c0.516,0.146,0.996,0.22,1.441,0.22c0.527,0,0.902-0.122,1.125-0.365   s0.334-0.684,0.334-1.323v-7.559H256.986z"/>
	<path fill="#223468" d="M265.351,33.489l-0.678-2.364h-3.214l-0.72,2.364h-2.989l3.704-11.997h3.894l3.762,11.997H265.351z    M262.085,28.505h1.941l-0.971-3.48L262.085,28.505z"/>
	<path fill="#223468" d="M276.829,33.489l-0.678-2.364h-3.214l-0.72,2.364h-2.989l3.704-11.997h3.894l3.763,11.997H276.829z    M273.563,28.505h1.941l-0.971-3.48L273.563,28.505z"/>
	<path fill="#223468" d="M291.949,33.489h-2.997l-3.286-5.301c-0.421-0.68-0.847-1.505-1.275-2.478   c0.193,0.773,0.29,1.43,0.29,1.969v5.81h-2.988V21.492h3.48l2.795,4.394c0.557,0.874,0.979,1.641,1.266,2.303   c-0.188-1.025-0.281-2.074-0.281-3.146v-3.551h2.997V33.489z"/>
	<path fill="#223468" d="M308.271,21.492v7.945c0,1.506-0.447,2.588-1.34,3.248c-0.895,0.659-2.059,0.989-3.494,0.989   c-1.512,0-2.727-0.316-3.643-0.949c-0.918-0.633-1.376-1.664-1.376-3.094v-8.139h3.744V29.2c0,0.574,0.121,0.993,0.363,1.257   c0.243,0.264,0.63,0.396,1.162,0.396c0.443,0,0.808-0.095,1.091-0.286s0.453-0.406,0.509-0.646c0.055-0.24,0.083-0.709,0.083-1.406   v-7.022H308.271z"/>
	<path fill="#223468" d="M323.282,21.492v11.997h-3.419v-8.578l-2.219,8.578h-2.338l-2.308-8.578v8.578h-2.76V21.492h4.812   l1.74,6.372l1.662-6.372H323.282z"/>
	<path fill="#223468" d="M335.103,21.492v7.945c0,1.506-0.447,2.588-1.34,3.248c-0.895,0.659-2.059,0.989-3.494,0.989   c-1.512,0-2.727-0.316-3.643-0.949c-0.918-0.633-1.376-1.664-1.376-3.094v-8.139h3.744V29.2c0,0.574,0.121,0.993,0.363,1.257   c0.243,0.264,0.63,0.396,1.162,0.396c0.443,0,0.808-0.095,1.091-0.286s0.453-0.406,0.509-0.646c0.055-0.24,0.083-0.709,0.083-1.406   v-7.022H335.103z"/>
	<path fill="#223468" d="M350.116,21.492v11.997h-3.419v-8.578l-2.219,8.578h-2.338l-2.308-8.578v8.578h-2.76V21.492h4.812   l1.74,6.372l1.662-6.372H350.116z"/>
	<path fill="#223468" d="M68.971,55.089V43.092h4.641c2.016,0,3.524,0.598,4.526,1.793s1.503,2.578,1.503,4.148   c0,1.793-0.538,3.25-1.613,4.373s-2.471,1.683-4.188,1.683H68.971z M72.653,52.329h0.958c0.609,0,1.124-0.296,1.542-0.888   s0.628-1.397,0.628-2.417c0-0.873-0.186-1.626-0.558-2.259s-0.91-0.949-1.613-0.949h-0.958V52.329z"/>
	<path fill="#223468" d="M87.416,55.089l-0.678-2.364h-3.214l-0.72,2.364h-2.989l3.704-11.997h3.894l3.762,11.997H87.416z    M84.15,50.105h1.941l-0.971-3.48L84.15,50.105z"/>
	<path fill="#223468" d="M102.536,55.089h-2.997l-3.286-5.301c-0.422-0.68-0.847-1.505-1.276-2.478   c0.193,0.773,0.29,1.43,0.29,1.969v5.81h-2.988V43.092h3.48l2.795,4.394c0.557,0.874,0.978,1.641,1.265,2.303   c-0.188-1.025-0.281-2.074-0.281-3.146v-3.551h2.997V55.089z"/>
	<path fill="#223468" d="M112.863,50.729v4.359h-3.735V43.092h5.124c1.277,0,2.249,0.146,2.914,0.439s1.192,0.741,1.582,1.345   s0.584,1.28,0.584,2.03c0,1.143-0.398,2.065-1.195,2.769s-1.86,1.055-3.19,1.055H112.863z M112.811,48.154h1.23   c1.084,0,1.626-0.398,1.626-1.195c0-0.75-0.501-1.125-1.503-1.125h-1.354V48.154z"/>
	<path fill="#223468" d="M129.729,52.224v2.865h-9.026V43.092h9.026v2.769h-5.414v1.74h4.377v2.663h-4.377v1.96H129.729z"/>
	<path fill="#223468" d="M141.867,55.089h-4.083l-1.752-4.588h-1.161v4.588h-3.683V43.092h6.267c1.383,0,2.457,0.324,3.221,0.971   s1.147,1.501,1.147,2.562c0,0.691-0.141,1.302-0.422,1.833s-0.85,0.998-1.705,1.402L141.867,55.089z M134.871,47.935h1.573   c0.463,0,0.835-0.097,1.116-0.29s0.422-0.478,0.422-0.853c0-0.768-0.472-1.151-1.415-1.151h-1.696V47.935z"/>
	<path fill="#223468" d="M153.337,43.092v7.945c0,1.506-0.447,2.588-1.34,3.248s-2.058,0.989-3.494,0.989   c-1.512,0-2.726-0.316-3.643-0.949s-1.375-1.664-1.375-3.094v-8.139h3.744V50.8c0,0.574,0.121,0.993,0.364,1.257   c0.242,0.264,0.629,0.396,1.162,0.396c0.444,0,0.808-0.095,1.091-0.286c0.284-0.19,0.453-0.406,0.508-0.646   c0.056-0.24,0.083-0.709,0.083-1.406v-7.022H153.337z"/>
	<path fill="#223468" d="M168.349,43.092v11.997h-3.419v-8.578l-2.219,8.578h-2.338l-2.307-8.578v8.578h-2.76V43.092h4.812   l1.74,6.372l1.661-6.372H168.349z"/>
	<path fill="#223468" d="M177.056,55.089l-0.678-2.364h-3.214l-0.72,2.364h-2.989l3.704-11.997h3.894l3.762,11.997H177.056z    M173.79,50.105h1.941l-0.971-3.48L173.79,50.105z"/>
	<path fill="#223468" d="M192.097,43.092v11.997h-3.683v-4.667h-2.813v4.667h-3.683V43.092h3.683v4.412h2.813v-4.412H192.097z"/>
	<path fill="#223468" d="M200.795,55.089l-0.678-2.364h-3.214l-0.72,2.364h-2.989l3.704-11.997h3.894l3.762,11.997H200.795z    M197.529,50.105h1.941l-0.971-3.48L197.529,50.105z"/>
	<path fill="#223468" d="M215.915,55.089h-2.997l-3.286-5.301c-0.422-0.68-0.847-1.505-1.276-2.478   c0.193,0.773,0.29,1.43,0.29,1.969v5.81h-2.988V43.092h3.48l2.795,4.394c0.557,0.874,0.978,1.641,1.265,2.303   c-0.188-1.025-0.281-2.074-0.281-3.146v-3.551h2.997V55.089z"/>
	<path fill="#223468" d="M233.186,55.089h-4.083l-1.752-4.588h-1.161v4.588h-3.683V43.092h6.267c1.383,0,2.457,0.324,3.221,0.971   s1.147,1.501,1.147,2.562c0,0.691-0.141,1.302-0.422,1.833s-0.85,0.998-1.705,1.402L233.186,55.089z M226.189,47.935h1.573   c0.463,0,0.835-0.097,1.116-0.29s0.422-0.478,0.422-0.853c0-0.768-0.472-1.151-1.415-1.151h-1.696V47.935z"/>
	<path fill="#223468" d="M241.541,55.089l-0.678-2.364h-3.214l-0.72,2.364h-2.989l3.704-11.997h3.894l3.762,11.997H241.541z    M238.275,50.105h1.941l-0.971-3.48L238.275,50.105z"/>
	<path fill="#223468" d="M257.224,55.089h-4.029l-2.074-4.534l-1.244,1.765v2.769h-3.472V43.092h3.472v4.96l3.309-4.96h3.31   l-3.03,4.391L257.224,55.089z"/>
	<path fill="#223468" d="M268.168,43.092l-3.755,6.917v5.08h-3.577v-5.08l-4.036-6.917h4.029l2.103,3.955l2.016-3.955H268.168z"/>
	<path fill="#223468" d="M274.588,55.089l-0.678-2.364h-3.214l-0.72,2.364h-2.989l3.704-11.997h3.894l3.762,11.997H274.588z    M271.322,50.105h1.941l-0.971-3.48L271.322,50.105z"/>
	<path fill="#223468" d="M283.697,45.966v9.123h-3.489v-9.123h-2.487v-2.874h8.464v2.874H283.697z"/>
</g>
</svg>